<?xml version="1.0" encoding="utf-8"?>
<svg version="1.1" xmlns="http://www.w3.org/2000/svg"
     xmlns:xlink="http://www.w3.org/1999/xlink"
     x="0px" y="0px"
     width="100%" height="100%"
     viewBox="0 0 1920 1200"
     style="enable-background:new 0 0 1920 1200;">

    <g id="lines">
		<path id="line4" class="st15" d="M1080.9,862.4l-237.1,169.7c0,0-26.9,19.2-59.3,25.2c0,0-104.9,19.4-128.7-89.8"/>
		<path id="line3" class="st15" d="M998.3,236.2c0,0-236.8-40.3-323.5,201.5"/>
		<polyline id="line2" class="st15" points="593.3,315.5 950.2,427.3 1106.5,658.8 		"/>
		<path id="line1" class="st15" d="M1646.4,407.8c0,0,234,347.1,158,588.9l-419.3-175.5"/>
	</g>

	<g id="textCircle">
		<text transform="matrix(1 0 0 1 1192.7861 757.5439)" class="st9 st4 st13">THE</text>
		<text transform="matrix(1 0 0 1 1140.5146 797.1689)" style="st9 st4 st13">F</text>
		<text transform="matrix(1 0 0 1 1160.6895 797.1689)" style="st9 st4 st13">INALISTS</text>
	</g>

    <circle id="circle" style="st2" cx="1225.3" cy="779.6" r="105.8"/>

	<g id="textTitle">
		<text transform="matrix(1 0 0 1 1110.5928 186.2769)"><tspan x="0" y="0" class="st9 st4 st11">LET THE INNO</tspan><tspan x="368.7" y="0" class="st9 st4 st11 st7">VA</tspan><tspan x="434.6" y="0" class="st9 st4 st11">TIONS </tspan></text>
		<text transform="matrix(1 0 0 1 1110.5928 249.9854)"><tspan x="0" y="0" class="st9 st4 st11">EMERGE B</tspan><tspan x="283.2" y="0" class="st9 st4 st11">Y</tspan><tspan x="317.6" y="0" class="st9 st4 st11"> SHARING </tspan></text>
		<text transform="matrix(1 0 0 1 1110.5928 313.6938)" class="st9 st4 st11">YOUR KNOWLEDGE</text>
	</g>

	<g id="hivos_logo">
		<path class="st9" d="M348.1,322.9L348.1,322.9l9.5-12.8c0.9-1.2,1.7-2.8,1.7-2.8h0.1c0,0-0.2,1.8-0.2,3.3v12.3H348.1z
			 M344.4,326.9h14.8v7.4c0,1.1,0.6,1.6,1.6,1.6h1.5c1,0,1.6-0.5,1.6-1.6v-7.4h3.2c0.9,0,1.3-0.5,1.3-1.6v-0.9c0-1-0.6-1.6-1.6-1.6
			h-3v-19.1c0-1-0.6-1.6-1.6-1.6h-2.6c-0.8,0-1.4,0.3-1.9,1l-14.3,19.9c-0.4,0.6-0.6,1.1-0.6,2v0.3
			C342.8,326.4,343.4,326.9,344.4,326.9 M321.5,334.4c0,1.1,0.5,1.6,1.6,1.6h16.3c1,0,1.6-0.5,1.6-1.6v-1c0-1-0.6-1.6-1.6-1.6h-5.8
			v-28c0-1-0.5-1.6-1.6-1.6h-1.5c-0.8,0-1.3,0.2-1.9,0.8l-6.1,6c-0.7,0.7-0.8,1.5,0,2.2l0.7,0.7c0.7,0.8,1.4,0.8,2.2,0l2.1-2.1
			c1-1.1,1.5-1.8,1.5-1.8h0.1c0,0,0,1,0,2.1v21.8H323c-1.1,0-1.6,0.5-1.6,1.6V334.4z M304.5,332.2c-5.5,0-7.1-5.8-7.1-13.1
			c0-7.3,1.6-13,7.1-13c5.5,0,7.1,5.7,7.1,13C311.5,326.4,310,332.2,304.5,332.2 M304.5,336.5c9,0,11.9-7.7,11.9-17.5
			c0-9.7-2.9-17.4-11.9-17.4c-9,0-11.9,7.7-11.9,17.4C292.5,328.8,295.5,336.5,304.5,336.5 M265.2,334.4c0,1.1,0.7,1.6,1.7,1.6h18.7
			c1,0,1.6-0.5,1.6-1.6v-1c0-1-0.6-1.6-1.6-1.6h-15.2c0.1-7.7,16.3-9.4,16.3-20.5c0-5.8-4.5-9.7-10.6-9.7c-5.4,0-8.5,3.2-9.8,5.1
			c-0.6,0.8-0.4,1.5,0.4,2.1l0.9,0.7c0.8,0.7,1.6,0.4,2.2-0.3c0.9-1.1,2.9-3.1,6-3.1c3.5,0,6.1,2.2,6.1,5.6
			c0,7.9-16.5,9.6-16.5,21.7V334.4z"/>
		<path class="st9" d="M529.9,225.1c0,1.7,0.9,2.6,2.6,2.6h3.1c1.7,0,2.6-0.9,2.6-2.6v-13.3c0-2.1-0.4-5.8-0.4-5.8h0.1
			c0,0,1.5,3.6,2.9,5.8l8.5,14.1c0.7,1.2,1.7,1.8,3.1,1.8h3.7c1.7,0,2.6-0.9,2.6-2.6v-28.9c0-1.7-0.9-2.6-2.6-2.6H553
			c-1.7,0-2.6,0.9-2.6,2.6v13.3c0,2.2,0.4,5.8,0.4,5.8h-0.1c0,0-1.5-3.6-2.9-5.8l-8.4-14.2c-0.7-1.2-1.7-1.8-3.1-1.8h-3.7
			c-1.7,0-2.6,0.9-2.6,2.6V225.1z M498,210.5c0-5.6,3.8-9.8,9.2-9.8c5.4,0,9.2,4.2,9.2,9.8c0,5.8-3.8,10.2-9.2,10.2
			C501.9,220.7,498,216.3,498,210.5 M489.4,210.5c0,10,7.3,17.9,17.9,17.9c10.6,0,17.9-7.8,17.9-17.9c0-9.8-7.3-17.4-17.9-17.4
			C496.6,193.1,489.4,200.7,489.4,210.5 M476.2,225.1c0,1.7,0.9,2.6,2.6,2.6h3.1c1.7,0,2.6-0.9,2.6-2.6v-28.9c0-1.7-0.9-2.6-2.6-2.6
			h-3.1c-1.7,0-2.6,0.9-2.6,2.6V225.1z M453.9,225.1c0,1.7,0.9,2.6,2.6,2.6h3.1c1.7,0,2.6-0.9,2.6-2.6v-24.4h7.7
			c1.7,0,2.6-0.9,2.6-2.6v-1.9c0-1.7-0.9-2.6-2.6-2.6h-23.8c-1.7,0-2.6,0.9-2.6,2.6v1.9c0,1.7,0.9,2.6,2.6,2.6h7.7V225.1z
			 M427,213.9l2-6.6c0.6-2.1,1.4-5.9,1.4-5.9h0.1c0,0,0.8,3.7,1.4,5.9l1.9,6.6H427z M415.4,224.8c-0.6,1.8,0.2,3,2.1,3h3.2
			c1.5,0,2.5-0.7,2.9-2.2l1.4-5h10.6l1.4,5c0.5,1.5,1.4,2.2,3,2.2h3.1c1.9,0,2.8-1.2,2.1-3l-9.9-29c-0.5-1.5-1.4-2.1-3-2.1h-4.3
			c-1.5,0-2.5,0.7-3,2.1L415.4,224.8z M395.6,225.7c0.5,1.4,1.5,2.1,3,2.1h4.2c1.5,0,2.5-0.7,3-2.1l10.2-29c0.6-1.8-0.2-3-2.1-3
			h-3.4c-1.6,0-2.5,0.7-3,2.2l-5.4,17.2c-0.7,2.1-1.3,5.5-1.3,5.5h-0.1c0,0-0.6-3.3-1.3-5.5l-5.3-17.2c-0.4-1.5-1.4-2.2-3-2.2h-3.6
			c-2,0-2.8,1.2-2.1,3L395.6,225.7z M356.9,210.5c0-5.6,3.8-9.8,9.2-9.8s9.2,4.2,9.2,9.8c0,5.8-3.8,10.2-9.2,10.2
			S356.9,216.3,356.9,210.5 M348.2,210.5c0,10,7.3,17.9,17.9,17.9c10.6,0,17.9-7.8,17.9-17.9c0-9.8-7.3-17.4-17.9-17.4
			C355.5,193.1,348.2,200.7,348.2,210.5 M314.6,225.1c0,1.7,0.9,2.6,2.6,2.6h3.1c1.7,0,2.6-0.9,2.6-2.6v-13.3c0-2.1-0.4-5.8-0.4-5.8
			h0.1c0,0,1.5,3.6,2.9,5.8L334,226c0.7,1.2,1.7,1.8,3.1,1.8h3.7c1.7,0,2.6-0.9,2.6-2.6v-28.9c0-1.7-0.9-2.6-2.6-2.6h-3.1
			c-1.7,0-2.6,0.9-2.6,2.6v13.3c0,2.2,0.4,5.8,0.4,5.8h-0.1c0,0-1.5-3.6-2.9-5.8l-8.4-14.2c-0.7-1.2-1.7-1.8-3.2-1.8h-3.7
			c-1.7,0-2.6,0.9-2.6,2.6V225.1z M279.2,225.1c0,1.7,0.9,2.6,2.6,2.6h3.1c1.7,0,2.6-0.9,2.6-2.6v-13.3c0-2.1-0.4-5.8-0.4-5.8h0.1
			c0,0,1.5,3.6,2.9,5.8l8.5,14.1c0.7,1.2,1.7,1.8,3.1,1.8h3.7c1.7,0,2.6-0.9,2.6-2.6v-28.9c0-1.7-0.9-2.6-2.6-2.6h-3.1
			c-1.7,0-2.6,0.9-2.6,2.6v13.3c0,2.2,0.4,5.8,0.4,5.8h-0.1c0,0-1.5-3.6-2.9-5.8l-8.4-14.2c-0.7-1.2-1.7-1.8-3.2-1.8h-3.7
			c-1.7,0-2.6,0.9-2.6,2.6V225.1z M264.2,225.1c0,1.7,0.9,2.6,2.6,2.6h3.1c1.7,0,2.6-0.9,2.6-2.6v-28.9c0-1.7-0.9-2.6-2.6-2.6h-3.1
			c-1.7,0-2.6,0.9-2.6,2.6V225.1z"/>
		<path class="st9" d="M409.6,182.2c0,1.7,0.9,2.6,2.6,2.6h17c1.7,0,2.6-0.9,2.6-2.6v-1.9c0-1.7-0.9-2.6-2.6-2.6H418v-24.4
			c0-1.7-0.9-2.6-2.6-2.6h-3.1c-1.7,0-2.6,0.9-2.6,2.6V182.2z M387.3,170.9l2-6.6c0.6-2.1,1.4-5.9,1.4-5.9h0.1c0,0,0.8,3.7,1.4,5.9
			l1.9,6.6H387.3z M375.7,181.8c-0.6,1.8,0.2,3,2.1,3h3.2c1.5,0,2.5-0.7,2.9-2.2l1.4-5H396l1.4,5c0.5,1.5,1.4,2.2,3,2.2h3.2
			c1.9,0,2.8-1.2,2.1-3l-9.9-29c-0.5-1.5-1.4-2.1-3-2.1h-4.3c-1.5,0-2.5,0.7-3,2.1L375.7,181.8z M363.4,182.2c0,1.7,0.9,2.6,2.6,2.6
			h3.1c1.7,0,2.6-0.9,2.6-2.6v-28.9c0-1.7-0.9-2.6-2.6-2.6h-3.1c-1.7,0-2.6,0.9-2.6,2.6V182.2z M328.3,167.7
			c0,10.1,6.9,17.7,17.9,17.7c5.8,0,9.8-2.4,11.9-4.1c1.3-1,1.3-2.3,0.4-3.7l-1.3-1.9c-1-1.4-2.2-1.5-3.7-0.5
			c-1.6,1.1-4.1,2.4-7,2.4c-6.6,0-9.6-5.2-9.6-10.3c0-4.9,2.8-9.7,9.6-9.7c2.5,0,4.8,1,6.4,1.9c1.5,0.9,2.7,0.8,3.6-0.7l1.2-2
			c0.9-1.4,0.8-2.7-0.6-3.6c-2-1.4-5.7-3.2-10.9-3.2C335.6,150.1,328.3,157.7,328.3,167.7 M298.2,167.5c0-5.6,3.8-9.8,9.2-9.8
			c5.4,0,9.2,4.2,9.2,9.8c0,5.8-3.8,10.2-9.2,10.2C302,177.7,298.2,173.3,298.2,167.5 M289.5,167.5c0,10,7.3,17.9,17.9,17.9
			c10.6,0,17.9-7.8,17.9-17.9c0-9.8-7.3-17.4-17.9-17.4C296.8,150.1,289.5,157.7,289.5,167.5 M263.6,182c1.8,1.4,6.1,3.4,10.8,3.4
			c7.7,0,12-4.9,12-10.6c0-10.8-15.1-9.6-15.1-14.6c0-1.3,1.1-2.4,3.7-2.4c2.2,0,3.8,0.8,5.4,1.6c1.3,0.7,2.6,1,3.6-0.9l1.1-2.2
			c0.7-1.4,0.6-2.6-0.8-3.6c-1.6-1.1-5.3-2.5-9.2-2.5c-6.9,0-12.2,4.2-12.2,10.5c0,10.7,15.1,9.9,15.1,14.8c0,1.3-1.1,2.4-3.6,2.4
			c-3,0-5.1-1.5-6.2-2.1c-1.6-0.9-2.7-0.8-3.6,0.6l-1.5,2.1C261.9,180.1,262.6,181.2,263.6,182"/>
		<path class="st9" d="M380.8,138.9c1.5,1.2,5.3,3.5,10.1,3.5c6.7,0,10.7-4.3,10.7-9.6c0-10.8-16.2-8.9-16.2-16.1
			c0-2.9,2.6-4.7,6.1-4.7c2.9,0,4.9,1.2,6.2,2c0.8,0.5,1.6,0.6,2.1-0.4l0.7-1.2c0.4-0.9,0.3-1.6-0.5-2.1c-1.3-1-4.4-2.6-8.5-2.6
			c-6.2,0-10.9,3.7-10.9,9.4c0,10.5,16.2,8.8,16.2,16.3c0,2.9-2.3,4.8-5.9,4.8s-6.2-1.9-7.4-2.7c-0.9-0.6-1.6-0.5-2.1,0.3l-0.8,1.1
			C379.9,137.7,380.1,138.3,380.8,138.9 M346.1,124.7c0-7.3,5.3-12.8,12.5-12.8c7.2,0,12.4,5.5,12.4,12.8c0,7.5-5.3,13.3-12.4,13.3
			C351.4,138,346.1,132.3,346.1,124.7 M341.2,124.7c0,9.9,7.3,17.7,17.3,17.7s17.3-7.7,17.3-17.7c0-9.7-7.3-17.2-17.3-17.2
			S341.2,115,341.2,124.7 M321.6,140.5c0.3,0.9,0.9,1.3,1.8,1.3h2.3c0.9,0,1.5-0.4,1.8-1.3l11.2-30.6c0.4-1.1-0.1-1.8-1.3-1.8h-1.8
			c-0.9,0-1.5,0.4-1.8,1.3l-8,22.5c-0.6,1.8-1.3,4.6-1.3,4.6h-0.1c0,0-0.7-2.8-1.3-4.6l-7.9-22.5c-0.3-0.9-0.9-1.3-1.8-1.3h-1.8
			c-1.2,0-1.7,0.7-1.3,1.8L321.6,140.5z M300.7,140.2c0,1.1,0.5,1.6,1.6,1.6h1.5c1.1,0,1.6-0.5,1.6-1.6v-30.6c0-1.1-0.5-1.6-1.6-1.6
			h-1.5c-1,0-1.6,0.5-1.6,1.6V140.2z M265.2,140.2c0,1.1,0.5,1.6,1.6,1.6h1.5c1.1,0,1.6-0.5,1.6-1.6V127h17.5v13.2
			c0,1.1,0.6,1.6,1.6,1.6h1.6c1,0,1.5-0.5,1.5-1.6v-30.6c0-1.1-0.5-1.6-1.5-1.6H289c-1,0-1.6,0.5-1.6,1.6V123h-17.5v-13.3
			c0-1.1-0.5-1.6-1.6-1.6h-1.5c-1,0-1.6,0.5-1.6,1.6V140.2z"/>
		<path class="st17" d="M598.9,264c10.8-0.8,29.1-36.9,38.5-69.4c3.1-11.5,5.4-24.9,4.5-37.2c-1.6-22.6-12.8-36.2-37.5-34.7
			c-24.6,1.7-43.9,23.1-42.2,47.6c0.5,6.5,2.6,12.8,5.8,18.2c7.2,11.7,13.1,13.5,15.9,13.3c3.2-0.2,4.2-1.8,3.4-2.5
			c-11.5-8.4-18.2-18.8-19.1-32c-1.3-19.2,14-38.1,34.2-39.5c21.5-1.5,32,10.3,33.4,30.3c0.8,11.9-1.4,25-4.5,37.1
			c-4.1,16-10,31.8-16.3,43.3c-8,14.6-12.2,20.5-13.4,20.6c-0.4-0.3-0.6-1.3-0.7-2.4c-0.4-5,2.3-15.2,6.2-15.4
			c1.3-0.1,3.8,0.1,4.3,2c0,0,1-2.3,0.8-4.2c-0.1-1.5-1-2.9-3.4-2.8c-11.2,0.8-14.7,12.8-14.1,20.5C595,261.3,596.3,264.2,598.9,264
			 M494,241.4c0.9-0.1,1.6,1,1.7,2.5c0.1,1.3-0.2,2.8-0.8,4.7c-2.5-1-3.9-2.5-4-3.8C490.8,243.1,492.2,241.5,494,241.4 M507,250
			c-2.4,0.2-4.7,0.3-6.6,0.1c1.3-2.9,1.7-5.6,1.5-7.8c-0.3-3.7-2.5-6.2-6.2-5.9c-6.7,0.5-11.1,5.3-10.7,9.9
			c0.3,4.9,4.8,9.6,18.2,8.8c1.6,20.9,13.3,26.6,28.2,25.6c23.1-1.6,54.5-22,66.9-32.4c1.1-0.6,2.3-2.4,2.2-3.9
			c0-0.6-0.1-0.9-1.7-2.3c-11.3,9.8-43.1,32.3-65.7,33.8c-12.7,0.9-22.9-5.2-24.2-24.4C508.9,250.6,508.3,249.9,507,250 M417,252.6
			c-0.3,6.2-8.6,15.8-11.4,16c-0.4,0-0.6-0.5-0.7-2.2c-0.3-4.3,1.3-10.8,5.6-11.1c2.4-0.2,3.6,1.1,3.9,1.4c1-1.4,1.3-2.7,1.2-3.6
			c-0.1-1.7-1.5-2.7-3.2-2.6c-9.5,0.7-14.2,9.2-13.6,17.6c0.1,2.1,1,5.7,4.3,5.5c5.2-0.4,10.5-5.4,13.9-10
			c4.1,10,15.7,15.8,29.3,14.8c17.9-1.3,38.3-12.1,49.4-23.3c0.9-1,1.2-1.8,1.1-2.9c-0.1-0.7-0.9-2.2-1.9-3.1
			c-10.2,12-29.9,23.1-46.7,24.3c-13.4,0.9-26.1-5.7-26.9-17.8C421.2,254.1,419.8,252.7,417,252.6 M268.8,261.1
			c-0.5,6-0.7,11.5-0.4,15.2c0.4,5.2,1.9,8.3,5.3,8.1c3.5-0.4,8.5-4,11.9-7.4c0.5,7.1,1.7,10.2,4.4,10c9-0.6,20.9-14.2,21.6-23.4
			c5.2-0.2,12.8,0.8,20,1.6c12.9,1.5,28.7,3.1,45.5,1.9c9.5-0.7,19.7-3.1,25.4-6.7c0.5-0.4,1.8-1.4,1.7-2.6c0-0.4-0.1-0.9-1.5-2.1
			c-7,4.1-15,5.7-24.1,6.4c-15.5,1.1-31.5-0.6-45.1-2.1c-9.4-1-17.9-1.9-25.2-1.6l-3.2,0.2c0.6,8.6-6.5,22.8-13.2,23.4
			c-0.4-6.2,1.6-15.1,1.3-18.7c-0.1-2.1-1.6-3.8-6.8-3.5c0.1,1.5,0,2.8-0.1,4.5c-1.3,5-7.6,15-11.5,15.2c-0.2,0-0.3-1.3-0.4-2.6
			c-0.2-3.4,0.6-10.7,0.4-13C274.7,262.3,271.9,260.8,268.8,261.1 M241.9,177.1c4.3-0.3,8.8-8.1,8.4-14.3
			c-0.7-9.3-12.6-10.9-19.9-10.4c-68.3,4.8-103.8,86.7-100.8,129.5c1.1,16.4,8.1,27.2,20.6,26.3c24.6-1.7,52.5-54.1,73-103.3
			c-3.4,18-5.8,38.3-4.5,55.6c1.3,18.8,7.3,32.1,22.2,31.1c12.3-0.9,24.6-12.6,32.4-21.4c0.5-0.6,0.8-1.4,0.8-2.3
			c-0.1-0.9-0.9-2.4-1.8-3.8c-2.9,3.8-17.6,21.1-29,21.9c-11.6,0.8-16.3-11.2-17.5-27.6c-2.1-29.8,7.9-75,11.7-88l-0.2,0.2
			c0.5-1,0.6-1.9,0.6-2.3c-0.1-1.5-0.9-2-2.2-1.9c-1.1,0.1-4,1.4-4.7,2.6c-3.1,8.7-10.8,28.5-20.5,50.2
			c-15.2,34.1-40.9,82.2-57.9,83.3c-9.5,0.7-14.6-8-15.6-21.6c-2.8-39.7,30-118.3,91.3-122.6c5.6-0.4,14.5,0.7,15,7.4
			c0.2,2.8-1.8,6.3-4.3,8.7C239.2,176.7,240,177.2,241.9,177.1"/>
		<path class="st9" d="M598.9,264c10.8-0.8,29.1-36.9,38.5-69.4c3.1-11.5,5.4-24.9,4.5-37.2c-1.6-22.6-12.8-36.2-37.5-34.7
			c-24.6,1.7-43.9,23.1-42.2,47.6c0.5,6.5,2.6,12.8,5.8,18.2c7.2,11.7,13.1,13.5,15.9,13.3c3.2-0.2,4.2-1.8,3.4-2.5
			c-11.5-8.4-18.2-18.8-19.1-32c-1.3-19.2,14-38.1,34.2-39.5c21.5-1.5,32,10.3,33.4,30.3c0.8,11.9-1.4,25-4.5,37.1
			c-4.1,16-10,31.8-16.3,43.3c-8,14.6-12.2,20.5-13.4,20.6c-0.4-0.3-0.6-1.3-0.7-2.4c-0.4-5,2.3-15.2,6.2-15.4
			c1.3-0.1,3.8,0.1,4.3,2c0,0,1-2.3,0.8-4.2c-0.1-1.5-1-2.9-3.4-2.8c-11.2,0.8-14.7,12.8-14.1,20.5C595,261.3,596.3,264.2,598.9,264
			 M494,241.4c0.9-0.1,1.6,1,1.7,2.5c0.1,1.3-0.2,2.8-0.8,4.7c-2.5-1-3.9-2.5-4-3.8C490.8,243.1,492.2,241.5,494,241.4 M507,250
			c-2.4,0.2-4.7,0.3-6.6,0.1c1.3-2.9,1.7-5.6,1.5-7.8c-0.3-3.7-2.5-6.2-6.2-5.9c-6.7,0.5-11.1,5.3-10.7,9.9
			c0.3,4.9,4.8,9.6,18.2,8.8c1.6,20.9,13.3,26.6,28.2,25.6c23.1-1.6,54.5-22,66.9-32.4c1.1-0.6,2.3-2.4,2.2-3.9
			c0-0.6-0.1-0.9-1.7-2.3c-11.3,9.8-43.1,32.3-65.7,33.8c-12.7,0.9-22.9-5.2-24.2-24.4C508.9,250.6,508.3,249.9,507,250 M417,252.6
			c-0.3,6.2-8.6,15.8-11.4,16c-0.4,0-0.6-0.5-0.7-2.2c-0.3-4.3,1.3-10.8,5.6-11.1c2.4-0.2,3.6,1.1,3.9,1.4c1-1.4,1.3-2.7,1.2-3.6
			c-0.1-1.7-1.5-2.7-3.2-2.6c-9.5,0.7-14.2,9.2-13.6,17.6c0.1,2.1,1,5.7,4.3,5.5c5.2-0.4,10.5-5.4,13.9-10
			c4.1,10,15.7,15.8,29.3,14.8c17.9-1.3,38.3-12.1,49.4-23.3c0.9-1,1.2-1.8,1.1-2.9c-0.1-0.7-0.9-2.2-1.9-3.1
			c-10.2,12-29.9,23.1-46.7,24.3c-13.4,0.9-26.1-5.7-26.9-17.8C421.2,254.1,419.8,252.7,417,252.6 M268.8,261.1
			c-0.5,6-0.7,11.5-0.4,15.2c0.4,5.2,1.9,8.3,5.3,8.1c3.5-0.4,8.5-4,11.9-7.4c0.5,7.1,1.7,10.2,4.4,10c9-0.6,20.9-14.2,21.6-23.4
			c5.2-0.2,12.8,0.8,20,1.6c12.9,1.5,28.7,3.1,45.5,1.9c9.5-0.7,19.7-3.1,25.4-6.7c0.5-0.4,1.8-1.4,1.7-2.6c0-0.4-0.1-0.9-1.5-2.1
			c-7,4.1-15,5.7-24.1,6.4c-15.5,1.1-31.5-0.6-45.1-2.1c-9.4-1-17.9-1.9-25.2-1.6l-3.2,0.2c0.6,8.6-6.5,22.8-13.2,23.4
			c-0.4-6.2,1.6-15.1,1.3-18.7c-0.1-2.1-1.6-3.8-6.8-3.5c0.1,1.5,0,2.8-0.1,4.5c-1.3,5-7.6,15-11.5,15.2c-0.2,0-0.3-1.3-0.4-2.6
			c-0.2-3.4,0.6-10.7,0.4-13C274.7,262.3,271.9,260.8,268.8,261.1 M241.9,177.1c4.3-0.3,8.8-8.1,8.4-14.3
			c-0.7-9.3-12.6-10.9-19.9-10.4c-68.3,4.8-103.8,86.7-100.8,129.5c1.1,16.4,8.1,27.2,20.6,26.3c24.6-1.7,52.5-54.1,73-103.3
			c-3.4,18-5.8,38.3-4.5,55.6c1.3,18.8,7.3,32.1,22.2,31.1c12.3-0.9,24.6-12.6,32.4-21.4c0.5-0.6,0.8-1.4,0.8-2.3
			c-0.1-0.9-0.9-2.4-1.8-3.8c-2.9,3.8-17.6,21.1-29,21.9c-11.6,0.8-16.3-11.2-17.5-27.6c-2.1-29.8,7.9-75,11.7-88l-0.2,0.2
			c0.5-1,0.6-1.9,0.6-2.3c-0.1-1.5-0.9-2-2.2-1.9c-1.1,0.1-4,1.4-4.7,2.6c-3.1,8.7-10.8,28.5-20.5,50.2
			c-15.2,34.1-40.9,82.2-57.9,83.3c-9.5,0.7-14.6-8-15.6-21.6c-2.8-39.7,30-118.3,91.3-122.6c5.6-0.4,14.5,0.7,15,7.4
			c0.2,2.8-1.8,6.3-4.3,8.7C239.2,176.7,240,177.2,241.9,177.1"/>
		<path class="st1" d="M598.9,264c10.8-0.8,29.1-36.9,38.5-69.4c3.1-11.5,5.4-24.9,4.5-37.2c-1.6-22.6-12.8-36.2-37.5-34.7
			c-24.6,1.7-43.9,23.1-42.2,47.6c0.5,6.5,2.6,12.8,5.8,18.2c7.2,11.7,13.1,13.5,15.9,13.3c3.2-0.2,4.2-1.8,3.4-2.5
			c-11.5-8.4-18.2-18.8-19.1-32c-1.3-19.2,14-38.1,34.2-39.5c21.5-1.5,32,10.3,33.4,30.3c0.8,11.9-1.4,25-4.5,37.1
			c-4.1,16-10,31.8-16.3,43.3c-8,14.6-12.2,20.5-13.4,20.6c-0.4-0.3-0.6-1.3-0.7-2.4c-0.4-5,2.3-15.2,6.2-15.4
			c1.3-0.1,3.8,0.1,4.3,2c0,0,1-2.3,0.8-4.2c-0.1-1.5-1-2.9-3.4-2.8c-11.2,0.8-14.7,12.8-14.1,20.5C595,261.3,596.3,264.2,598.9,264
			z M494,241.4c0.9-0.1,1.6,1,1.7,2.5c0.1,1.3-0.2,2.8-0.8,4.7c-2.5-1-3.9-2.5-4-3.8C490.8,243.1,492.2,241.5,494,241.4z M507,250
			c-2.4,0.2-4.7,0.3-6.6,0.1c1.3-2.9,1.7-5.6,1.5-7.8c-0.3-3.7-2.5-6.2-6.2-5.9c-6.7,0.5-11.1,5.3-10.7,9.9
			c0.3,4.9,4.8,9.6,18.2,8.8c1.6,20.9,13.3,26.6,28.2,25.6c23.1-1.6,54.5-22,66.9-32.4c1.1-0.6,2.3-2.4,2.2-3.9
			c0-0.6-0.1-0.9-1.7-2.3c-11.3,9.8-43.1,32.3-65.7,33.8c-12.7,0.9-22.9-5.2-24.2-24.4C508.9,250.6,508.3,249.9,507,250z M417,252.6
			c-0.3,6.2-8.6,15.8-11.4,16c-0.4,0-0.6-0.5-0.7-2.2c-0.3-4.3,1.3-10.8,5.6-11.1c2.4-0.2,3.6,1.1,3.9,1.4c1-1.4,1.3-2.7,1.2-3.6
			c-0.1-1.7-1.5-2.7-3.2-2.6c-9.5,0.7-14.2,9.2-13.6,17.6c0.1,2.1,1,5.7,4.3,5.5c5.2-0.4,10.5-5.4,13.9-10
			c4.1,10,15.7,15.8,29.3,14.8c17.9-1.3,38.3-12.1,49.4-23.3c0.9-1,1.2-1.8,1.1-2.9c-0.1-0.7-0.9-2.2-1.9-3.1
			c-10.2,12-29.9,23.1-46.7,24.3c-13.4,0.9-26.1-5.7-26.9-17.8C421.2,254.1,419.8,252.7,417,252.6z M268.8,261.1
			c-0.5,6-0.7,11.5-0.4,15.2c0.4,5.2,1.9,8.3,5.3,8.1c3.5-0.4,8.5-4,11.9-7.4c0.5,7.1,1.7,10.2,4.4,10c9-0.6,20.9-14.2,21.6-23.4
			c5.2-0.2,12.8,0.8,20,1.6c12.9,1.5,28.7,3.1,45.5,1.9c9.5-0.7,19.7-3.1,25.4-6.7c0.5-0.4,1.8-1.4,1.7-2.6c0-0.4-0.1-0.9-1.5-2.1
			c-7,4.1-15,5.7-24.1,6.4c-15.5,1.1-31.5-0.6-45.1-2.1c-9.4-1-17.9-1.9-25.2-1.6l-3.2,0.2c0.6,8.6-6.5,22.8-13.2,23.4
			c-0.4-6.2,1.6-15.1,1.3-18.7c-0.1-2.1-1.6-3.8-6.8-3.5c0.1,1.5,0,2.8-0.1,4.5c-1.3,5-7.6,15-11.5,15.2c-0.2,0-0.3-1.3-0.4-2.6
			c-0.2-3.4,0.6-10.7,0.4-13C274.7,262.3,271.9,260.8,268.8,261.1z M241.9,177.1c4.3-0.3,8.8-8.1,8.4-14.3
			c-0.7-9.3-12.6-10.9-19.9-10.4c-68.3,4.8-103.8,86.7-100.8,129.5c1.1,16.4,8.1,27.2,20.6,26.3c24.6-1.7,52.5-54.1,73-103.3
			c-3.4,18-5.8,38.3-4.5,55.6c1.3,18.8,7.3,32.1,22.2,31.1c12.3-0.9,24.6-12.6,32.4-21.4c0.5-0.6,0.8-1.4,0.8-2.3
			c-0.1-0.9-0.9-2.4-1.8-3.8c-2.9,3.8-17.6,21.1-29,21.9c-11.6,0.8-16.3-11.2-17.5-27.6c-2.1-29.8,7.9-75,11.7-88l-0.2,0.2
			c0.5-1,0.6-1.9,0.6-2.3c-0.1-1.5-0.9-2-2.2-1.9c-1.1,0.1-4,1.4-4.7,2.6c-3.1,8.7-10.8,28.5-20.5,50.2
			c-15.2,34.1-40.9,82.2-57.9,83.3c-9.5,0.7-14.6-8-15.6-21.6c-2.8-39.7,30-118.3,91.3-122.6c5.6-0.4,14.5,0.7,15,7.4
			c0.2,2.8-1.8,6.3-4.3,8.7C239.2,176.7,240,177.2,241.9,177.1z"/>
	</g>
</svg>
